<?xml version="1.0" encoding="utf-8"?>
<!-- Generator: Adobe Illustrator 22.0.1, SVG Export Plug-In . SVG Version: 6.00 Build 0)  -->
<svg version="1.1" id="Layer_1" xmlns="http://www.w3.org/2000/svg" xmlns:xlink="http://www.w3.org/1999/xlink" x="0px" y="0px"
	 viewBox="0 0 1000 1000" enable-background="new 0 0 1000 1000" xml:space="preserve">
<g>
	<g>
		<path fill="#4897F7" d="M144.3,664.4c0.5,27.5-16.3,55.3-54.3,55.3c-13.4,0-29.4,0-42.7,0V611c13.3,0,29.3,0,42.7,0
			C127.3,611,143.9,637.6,144.3,664.4z M67.6,700H90c24.7,0,34.5-18,34-35.7c-0.5-16.9-10.4-33.9-34-33.9H67.6V700z"/>
		<path fill="#4897F7" d="M282.6,666c-0.3,28.1-17.5,56.2-55.7,56.2S171,694.7,171,666.1c0-28.6,18.3-57.3,55.9-57.3
			C264.3,608.8,282.9,637.6,282.6,666z M191.2,666.4c0.5,17.8,10.1,36.9,35.7,36.9c25.6,0,35.2-19.2,35.6-37.1
			c0.3-18.3-9.9-38.8-35.6-38.8C201.3,627.5,190.7,648.1,191.2,666.4z"/>
		<path fill="#4897F7" d="M410,706c-11.2,11-25.6,16.2-41.3,16.2c-40.4,0-57.5-27.8-57.6-56.1c-0.2-28.4,18.3-57.3,57.6-57.3
			c14.7,0,28.7,5.6,39.9,16.6L395,638.6c-7.1-7-16.8-10.2-26.2-10.2c-26.2,0-37.6,19.6-37.4,37.7c0.2,18,10.6,36.8,37.4,36.8
			c9.5,0,20.2-3.9,27.3-11L410,706z"/>
	</g>
	<g>
		<g>
			<path fill="#21324C" d="M518.8,637.8c-3.7-6.1-13.8-12-25.5-12c-15.1,0-22.3,6.3-22.3,14.3c0,9.4,11.1,12,24,13.5
				c22.4,2.8,43.3,8.6,43.3,34.3c0,24-21.2,34.3-45.2,34.3c-22,0-38.9-6.8-46.9-26.4l16.9-8.8c4.8,11.8,17.2,17.1,30.3,17.1
				c12.8,0,24.7-4.5,24.7-16.1c0-10.1-10.6-14.3-24.9-15.8c-22-2.6-42.3-8.5-42.3-32.6c0-22.1,21.8-31.2,41.6-31.3
				c16.7,0,34.1,4.8,42.3,21.4L518.8,637.8z"/>
			<path fill="#21324C" d="M612.5,630.3h-34.1v-18.4c31,0,57.3,0,88.5,0v18.4h-34.1v89.1h-20.3V630.3z"/>
			<path fill="#21324C" d="M786.3,699.1h-56.2l-9.2,20.3h-22l48.2-107.6h22.1l48.2,107.6h-22.1L786.3,699.1z M758.2,634.4l-20,45.8
				h39.9L758.2,634.4z"/>
			<path fill="#21324C" d="M952.7,719.4h-24.1l-31.3-36h-19.5v36h-20.3V611.7c17.1,0,34.1,0.2,51.2,0.2
				c25.4,0.2,38.7,17.1,38.7,35.6c0,14.8-6.8,29.7-27.2,33.8l32.6,36.7V719.4z M877.7,630.8v34.4h30.9c12.9,0,18.4-8.6,18.4-17.2
				c0-8.6-5.7-17.2-18.4-17.2H877.7z"/>
		</g>
		<g>
			<path fill="#4897F7" d="M631,470.7c18.6-70.2-24.8-148.3-95.6-166.7c-78.1-20.3-156.3,31.5-168.7,110.9
				c-4,25.6-0.9,52.3,9.5,76.2c14.3,32.6,42.1,58.6,75.3,71.2c68.6,26.1,151-11.1,175.9-80.4C628.9,478.2,630,474.5,631,470.7z"/>
			<g>
				<polygon fill="#DFDF00" points="500,326.7 500,326.7 500,326.6 467,398.1 388.7,407.4 446.6,460.9 431.2,538.2 500,499.7 
					500,499.7 500,499.7 500,499.7 500,326.7 				"/>
				<polygon fill="#DD9E00" points="500,499.7 500,499.7 568.8,538.2 553.4,460.9 611.3,407.4 533,398.1 500,326.6 500,326.7 
					500,326.7 500,326.7 500,499.7 500,499.7 				"/>
			</g>
			<g>
				<polygon fill="#21324C" points="344.4,407.9 325.1,386.1 352.5,383.6 379.8,301.2 417.9,313.9 423.7,296.3 368.1,277.8 
					338.7,366.3 286.9,371.1 323.5,412.2 295.5,496.5 351.1,515 356.9,497.4 318.9,484.8 				"/>
				<polygon fill="#21324C" points="713.1,371.1 661.3,366.3 631.9,277.8 576.3,296.3 582.1,313.9 620.2,301.2 647.5,383.6 
					674.9,386.1 655.6,407.9 681.1,484.8 643.1,497.4 648.9,515 704.5,496.5 676.5,412.2 				"/>
				<path fill="#21324C" d="M569.2,464.4l74.9-69.3l-101.3-12L500,290.4v0l0,0l0,0v0l-42.7,92.7l-101.3,12l74.9,69.3L411,564.5
					l89-49.8l89,49.8L569.2,464.4z M500,493.4L500,493.4L500,493.4L500,493.4L500,493.4L500,493.4L500,493.4l-63,35.3l14.1-70.9
					l-53-49.1l71.7-8.5l30.2-65.6l0,0v0l0,0l0,0v0l0,0l30.2,65.6l71.7,8.5l-53,49.1l14.1,70.9L500,493.4z"/>
			</g>
		</g>
	</g>
</g>
</svg>
